<svg width="24" height="18" viewBox="0 0 24 18" fill="none" xmlns="http://www.w3.org/2000/svg">
<path d="M13.2696 0.668898C13.5696 0.368944 13.9765 0.200439 14.4008 0.200439C14.825 0.200439 15.2319 0.368944 15.532 0.668898L22.732 7.8689C23.0319 8.16894 23.2004 8.57584 23.2004 9.0001C23.2004 9.42436 23.0319 9.83125 22.732 10.1313L15.532 17.3313C15.2302 17.6228 14.8261 17.784 14.4065 17.7804C13.987 17.7767 13.5857 17.6085 13.2891 17.3118C12.9924 17.0152 12.8242 16.6139 12.8205 16.1943C12.8169 15.7748 12.9781 15.3707 13.2696 15.0689L17.6008 10.6001H2.40078C1.97643 10.6001 1.56947 10.4315 1.26941 10.1315C0.969352 9.83141 0.800781 9.42444 0.800781 9.0001C0.800781 8.57575 0.969352 8.16879 1.26941 7.86873C1.56947 7.56867 1.97643 7.4001 2.40078 7.4001H17.6008L13.2696 2.9313C12.9696 2.63125 12.8011 2.22436 12.8011 1.8001C12.8011 1.37584 12.9696 0.968942 13.2696 0.668898Z" fill="black"/>
</svg>
