<svg width="12" height="12" viewBox="0 0 12 12" fill="none" xmlns="http://www.w3.org/2000/svg">
<path d="M8.475 10.7257C7.7117 11.1265 6.86214 11.3351 6 11.3333C3.05433 11.3333 0.666667 8.94567 0.666667 6C0.666667 3.05433 3.05433 0.666667 6 0.666667C8.94567 0.666667 11.3333 3.05433 11.3333 6C11.3333 6.05556 11.3324 6.11111 11.3307 6.16667H11.9977C11.9992 6.11111 12 6.05556 12 6C12 2.68633 9.31367 0 6 0C2.68633 0 0 2.68633 0 6C0 9.31367 2.68633 12 6 12C6.9732 12.0018 7.93207 11.7655 8.793 11.3117L8.475 10.7257Z" fill="black"/>
<path d="M2.58016 5.78311C2.54016 6.02911 2.70716 6.26477 2.93482 6.41077C3.17282 6.56311 3.51215 6.64644 3.91149 6.58744C4.08993 6.56313 4.26113 6.50106 4.41368 6.40536C4.56623 6.30965 4.69662 6.18252 4.79616 6.03244C4.96416 5.77777 5.03315 5.46811 4.95616 5.23844C4.94722 5.21191 4.93174 5.18806 4.91115 5.1691C4.89056 5.15013 4.86553 5.13665 4.83836 5.12991C4.81119 5.12316 4.78276 5.12337 4.75569 5.13052C4.72863 5.13766 4.70379 5.1515 4.68349 5.17077C4.08482 5.73877 3.40882 5.87844 2.80282 5.65344C2.7797 5.64484 2.75496 5.64149 2.73039 5.64361C2.70581 5.64574 2.68202 5.65329 2.66071 5.66573C2.63941 5.67817 2.62114 5.69518 2.60721 5.71553C2.59327 5.73589 2.58404 5.75875 2.58016 5.78311ZM9.27215 5.78311C9.31182 6.02911 9.14482 6.26477 8.91716 6.41077C8.67916 6.56311 8.34015 6.64644 7.94049 6.58744C7.76211 6.56309 7.59097 6.50099 7.43848 6.40529C7.28599 6.30959 7.15565 6.18248 7.05615 6.03244C6.88815 5.77777 6.81882 5.46811 6.89615 5.23844C6.9051 5.21191 6.92057 5.18806 6.94116 5.1691C6.96175 5.15013 6.98678 5.13665 7.01395 5.12991C7.04112 5.12316 7.06955 5.12337 7.09662 5.13052C7.12368 5.13766 7.14852 5.1515 7.16882 5.17077C7.76749 5.73877 8.44349 5.87844 9.04949 5.65344C9.07261 5.64484 9.09735 5.64149 9.12192 5.64361C9.1465 5.64574 9.17029 5.65329 9.1916 5.66573C9.2129 5.67817 9.23117 5.69518 9.2451 5.71553C9.25903 5.73589 9.26827 5.75875 9.27215 5.78311ZM11.3325 8.66644C11.3325 9.02006 11.192 9.3592 10.942 9.60925C10.6919 9.8593 10.3528 9.99977 9.99915 9.99977C9.64553 9.99977 9.30639 9.8593 9.05635 9.60925C8.8063 9.3592 8.66582 9.02006 8.66582 8.66644C8.66582 7.49977 9.99915 6.33311 9.99915 6.33311C9.99915 6.33311 11.3325 7.49977 11.3325 8.66644ZM4.93249 9.19977C5.46582 8.48877 6.53249 8.48877 7.06582 9.19977C7.11887 9.2705 7.19783 9.31725 7.28535 9.32976C7.37286 9.34226 7.46176 9.31948 7.53249 9.26644C7.60321 9.2134 7.64997 9.13443 7.66247 9.04691C7.67497 8.9594 7.6522 8.8705 7.59915 8.79977C6.79915 7.73311 5.19916 7.73311 4.39916 8.79977C4.34611 8.8705 4.32334 8.9594 4.33584 9.04691C4.34834 9.13443 4.3951 9.2134 4.46582 9.26644C4.53655 9.31948 4.62545 9.34226 4.71296 9.32976C4.80048 9.31725 4.87944 9.2705 4.93249 9.19977Z" fill="black"/>
</svg>
