<svg width="12" height="12" viewBox="0 0 12 12" fill="none" xmlns="http://www.w3.org/2000/svg">
<path d="M2.93474 5.41077C2.70707 5.26477 2.54041 5.02911 2.58007 4.78311C2.584 4.75878 2.59327 4.73562 2.60722 4.7153C2.62117 4.69499 2.63945 4.67802 2.66074 4.66562C2.68204 4.65321 2.70582 4.64569 2.73038 4.64358C2.75493 4.64148 2.77964 4.64484 2.80274 4.65344C3.40874 4.87844 4.08474 4.73877 4.68341 4.17077C4.70371 4.1515 4.72854 4.13766 4.75561 4.13052C4.78268 4.12337 4.81111 4.12316 4.83828 4.12991C4.86545 4.13665 4.89048 4.15013 4.91107 4.1691C4.93166 4.18806 4.94713 4.21191 4.95607 4.23844C5.03307 4.46811 4.96407 4.77777 4.79607 5.03211C4.69658 5.18225 4.5662 5.30945 4.41365 5.40521C4.26109 5.50097 4.08987 5.5631 3.91141 5.58744C3.51207 5.64644 3.17274 5.56311 2.93474 5.41077ZM8.91707 5.41077C9.14474 5.26477 9.31174 5.02911 9.27207 4.78311C9.26815 4.75878 9.25888 4.73562 9.24493 4.7153C9.23098 4.69499 9.2127 4.67802 9.1914 4.66562C9.17011 4.65321 9.14633 4.64569 9.12177 4.64358C9.09722 4.64148 9.0725 4.64484 9.04941 4.65344C8.44341 4.87844 7.76741 4.73877 7.16874 4.17077C7.14844 4.1515 7.1236 4.13766 7.09654 4.13052C7.06947 4.12337 7.04104 4.12316 7.01387 4.12991C6.9867 4.13665 6.96167 4.15013 6.94108 4.1691C6.92049 4.18806 6.90501 4.21191 6.89607 4.23844C6.81874 4.46811 6.88807 4.77777 7.05607 5.03211C7.15554 5.18221 7.28586 5.30938 7.43835 5.40514C7.59084 5.5009 7.762 5.56305 7.94041 5.58744C8.34007 5.64644 8.67907 5.56311 8.91707 5.41077Z" fill="black"/>
<path fill-rule="evenodd" clip-rule="evenodd" d="M9.0854 8.3335C8.51207 7.14616 7.3454 6.3335 5.9994 6.3335C4.6534 6.3335 3.48673 7.14616 2.9134 8.3335C2.75706 8.65683 3.01873 9.00016 3.37806 9.00016H8.62073C8.98007 9.00016 9.24173 8.65683 9.0854 8.3335ZM5.9994 7.00016C6.95607 7.00016 7.81707 7.5185 8.3254 8.3335H3.6734C4.18206 7.5185 5.04273 7.00016 5.9994 7.00016Z" fill="black"/>
<path fill-rule="evenodd" clip-rule="evenodd" d="M12 6C12 9.31367 9.31367 12 6 12C2.68633 12 0 9.31367 0 6C0 2.68633 2.68633 0 6 0C9.31367 0 12 2.68633 12 6ZM11.3333 6C11.3333 8.94567 8.94567 11.3333 6 11.3333C3.05433 11.3333 0.666667 8.94567 0.666667 6C0.666667 3.05433 3.05433 0.666667 6 0.666667C8.94567 0.666667 11.3333 3.05433 11.3333 6Z" fill="black"/>
</svg>
