<svg width="16" height="16" viewBox="0 0 16 16" fill="none" xmlns="http://www.w3.org/2000/svg">
<g clip-path="url(#clip0_722_25461)">
<path d="M8.00013 9.95703C7.58909 9.95703 7.18728 10.0789 6.84551 10.3073C6.50375 10.5356 6.23737 10.8602 6.08007 11.24C5.92278 11.6197 5.88162 12.0376 5.96181 12.4407C6.042 12.8439 6.23993 13.2142 6.53058 13.5048C6.82123 13.7955 7.19154 13.9934 7.59468 14.0736C7.99782 14.1538 8.41569 14.1126 8.79544 13.9553C9.17519 13.798 9.49977 13.5317 9.72813 13.1899C9.95649 12.8481 10.0784 12.4463 10.0784 12.0353C10.0785 11.7623 10.0248 11.492 9.92038 11.2399C9.81597 10.9877 9.66289 10.7585 9.46989 10.5655C9.27689 10.3725 9.04774 10.2194 8.79555 10.115C8.54337 10.0106 8.27307 9.95693 8.00013 9.95703ZM6.54613 11.1953C6.69343 10.94 6.90534 10.7279 7.16056 10.5805C7.41578 10.433 7.70533 10.3553 8.00009 10.3552C8.29485 10.3551 8.58445 10.4326 8.83977 10.5799C9.09509 10.7272 9.30715 10.9391 9.45463 11.1943L6.54613 11.1953Z" fill="black"/>
<path d="M10.875 9.375C11.4963 9.375 12 8.87132 12 8.25C12 7.62868 11.4963 7.125 10.875 7.125C10.2537 7.125 9.75 7.62868 9.75 8.25C9.75 8.87132 10.2537 9.375 10.875 9.375Z" fill="black"/>
<path d="M5.125 9.375C5.74632 9.375 6.25 8.87132 6.25 8.25C6.25 7.62868 5.74632 7.125 5.125 7.125C4.50368 7.125 4 7.62868 4 8.25C4 8.87132 4.50368 9.375 5.125 9.375Z" fill="black"/>
<path d="M6.74744 4.89494C6.88269 4.77769 6.50469 4.37969 6.39394 4.47644C5.99423 4.81388 5.52503 5.05903 5.01975 5.19441C4.51448 5.3298 3.98556 5.35208 3.47069 5.25969C3.32619 5.23144 3.19869 5.76494 3.37444 5.79869C3.96853 5.90529 4.57881 5.87956 5.16183 5.72335C5.74484 5.56714 6.28623 5.28429 6.74744 4.89494Z" fill="black"/>
<path d="M15.5 4.63376C15.5 2.92176 13.9073 1.25051 13.9073 1.25051C13.9073 1.25051 13.4525 1.73026 13.0285 2.43601C11.6513 1.18798 9.85856 0.497762 8 0.500005C3.858 0.500005 0.5 3.85801 0.5 8.00001C0.5 12.142 3.858 15.5 8 15.5C12.142 15.5 15.5 12.142 15.5 8.00001C15.5 7.22201 15.3813 6.47151 15.1615 5.76551C15.369 5.48351 15.5002 5.10725 15.5 4.63376ZM8 14.875C4.209 14.875 1.125 11.791 1.125 8.00001C1.125 4.20901 4.209 1.12501 8 1.12501C9.8275 1.12501 11.4895 1.84301 12.722 3.01026C12.489 3.50826 12.314 4.06776 12.314 4.63376C12.314 4.85651 12.343 5.05751 12.395 5.23801C11.9 5.30873 11.3955 5.27407 10.9148 5.13629C10.4341 4.99851 9.98792 4.76072 9.6055 4.43851C9.49475 4.34126 9.11675 4.73976 9.2525 4.85701C9.71371 5.24636 10.2551 5.52921 10.8381 5.68542C11.4211 5.84163 12.0314 5.86735 12.6255 5.76076C12.632 5.75951 12.6355 5.75301 12.6412 5.75051C13.1075 6.40151 13.9792 6.55701 14.6385 6.21526C14.792 6.78476 14.875 7.38276 14.875 8.00001C14.875 11.791 11.7908 14.875 8 14.875Z" fill="black"/>
</g>
<defs>
<clipPath id="clip0_722_25461">
<rect width="16" height="16" fill="white"/>
</clipPath>
</defs>
</svg>
