<svg width="12" height="12" viewBox="0 0 12 12" fill="none" xmlns="http://www.w3.org/2000/svg">
<path fill-rule="evenodd" clip-rule="evenodd" d="M6 11.3333C8.94567 11.3333 11.3333 8.94567 11.3333 6C11.3333 3.05433 8.94567 0.666667 6 0.666667C3.05433 0.666667 0.666667 3.05433 0.666667 6C0.666667 8.94567 3.05433 11.3333 6 11.3333ZM6 12C9.31367 12 12 9.31367 12 6C12 2.68633 9.31367 0 6 0C2.68633 0 0 2.68633 0 6C0 9.31367 2.68633 12 6 12Z" fill="black"/>
<path fill-rule="evenodd" clip-rule="evenodd" d="M5.09595 5.08314C5.13162 5.2158 5.14462 5.36147 5.10128 5.4808C5.09286 5.50392 5.07943 5.52488 5.06194 5.54219C5.04446 5.5595 5.02336 5.57272 5.00017 5.58091C4.97697 5.5891 4.95225 5.59205 4.92777 5.58955C4.9033 5.58706 4.87968 5.57917 4.85862 5.56647C4.76941 5.51042 4.6841 5.44839 4.60328 5.3808L4.53828 5.32747C4.47828 5.2788 4.42028 5.23147 4.36028 5.18647C4.19295 5.06147 4.06028 4.99547 3.94528 5.00114C3.82462 5.00714 3.67862 5.09147 3.49128 5.23947C3.43828 5.28114 3.38162 5.32847 3.32295 5.3778C3.19362 5.4858 3.05362 5.6028 2.92062 5.68814C2.89707 5.7033 2.87009 5.71228 2.84215 5.71426C2.81422 5.71624 2.78624 5.71114 2.76079 5.69945C2.73534 5.68776 2.71326 5.66984 2.69656 5.64736C2.67987 5.62487 2.66911 5.59854 2.66528 5.5708C2.64862 5.44914 2.67395 5.29714 2.72162 5.14847C2.77618 4.98099 2.85418 4.82208 2.95328 4.67647C3.15995 4.37414 3.49528 4.08914 3.94428 4.1078C4.37761 4.12614 4.69895 4.38014 4.89228 4.6568C4.98962 4.79547 5.05862 4.94447 5.09595 5.08314ZM6.87728 5.08314C6.84128 5.2158 6.82828 5.36147 6.87162 5.4808C6.88003 5.50396 6.89347 5.52497 6.91098 5.54232C6.92848 5.55966 6.94962 5.5729 6.97286 5.5811C6.9961 5.58929 7.02087 5.59223 7.04538 5.5897C7.06989 5.58717 7.09354 5.57924 7.11461 5.56647C7.20195 5.5138 7.28828 5.44647 7.36962 5.3808L7.43495 5.32747C7.49495 5.2788 7.55295 5.23147 7.61295 5.18647C7.77995 5.06147 7.91295 4.99547 8.02762 5.00114C8.14862 5.00714 8.29428 5.09147 8.48195 5.23947C8.53462 5.28114 8.59128 5.32847 8.65028 5.3778C8.77928 5.4858 8.91928 5.6028 9.05262 5.68814C9.07615 5.70322 9.10311 5.71214 9.131 5.71408C9.15888 5.71601 9.18681 5.71091 9.21221 5.69922C9.23761 5.68753 9.25966 5.66965 9.27633 5.64721C9.293 5.62477 9.30376 5.59849 9.30762 5.5708C9.32428 5.44914 9.29895 5.29714 9.25162 5.14847C9.19705 4.98099 9.11905 4.82208 9.01995 4.67647C8.81328 4.37414 8.47762 4.08914 8.02862 4.1078C7.59528 4.12614 7.27428 4.38014 7.08062 4.6568C6.98918 4.78637 6.92042 4.93053 6.87728 5.08314ZM6.00062 10.3335C4.65462 10.3335 3.48795 9.31747 2.91462 7.83347L2.89795 7.79047C2.74928 7.39347 3.06728 7.00014 3.49162 7.00014H8.50995C8.93428 7.00014 9.25261 7.39347 9.10328 7.79047L9.08695 7.83347C8.51328 9.31747 7.34662 10.3335 6.00062 10.3335ZM8.42595 7.6908C8.32595 7.93347 8.20962 8.15614 8.08095 8.35747H3.92028C3.80416 8.1751 3.70241 7.98397 3.61595 7.7858V7.6908H8.42595Z" fill="black"/>
<path fill-rule="evenodd" clip-rule="evenodd" d="M8.42327 9.024C8.49883 8.92556 8.57105 8.823 8.63994 8.71633C8.82629 8.42495 8.98106 8.11453 9.1016 7.79034C9.22927 7.45134 9.0156 7.11467 8.68594 7.02367C8.62805 7.00782 8.56829 6.99986 8.50827 7H3.49027C3.43024 6.99997 3.37047 7.00804 3.3126 7.024C3.16256 7.06479 3.03276 7.15935 2.94794 7.28967C2.90046 7.36315 2.87109 7.44684 2.86222 7.53387C2.85336 7.6209 2.86525 7.70879 2.89694 7.79034C2.93063 7.87895 2.96642 7.96675 3.00427 8.05367C3.10783 8.28922 3.22594 8.51011 3.3586 8.71633C3.42749 8.823 3.49971 8.92545 3.57527 9.02367C4.19994 9.834 5.05527 10.3333 5.99927 10.3333C6.94327 10.3333 7.7986 9.834 8.42327 9.024ZM8.4246 7.69067C8.3291 7.92245 8.21367 8.14551 8.0796 8.35734H3.91894C3.80281 8.17496 3.70106 7.98383 3.6146 7.78567V7.69067H8.4246Z" fill="black"/>
</svg>
