<svg width="24" height="24" viewBox="0 0 24 24" fill="none" xmlns="http://www.w3.org/2000/svg">
<path d="M10.7304 3.66768C10.4304 3.36772 10.0235 3.19922 9.59922 3.19922C9.17495 3.19922 8.76806 3.36772 8.46802 3.66768L1.26802 10.8677C0.968063 11.1677 0.799559 11.5746 0.799559 11.9989C0.799559 12.4231 0.968063 12.83 1.26802 13.1301L8.46802 20.3301C8.76978 20.6215 9.17394 20.7828 9.59346 20.7792C10.013 20.7755 10.4143 20.6072 10.7109 20.3106C11.0076 20.0139 11.1758 19.6126 11.1795 19.1931C11.1831 18.7736 11.0219 18.3694 10.7304 18.0677L6.39922 13.5989H21.5992C22.0236 13.5989 22.4305 13.4303 22.7306 13.1302C23.0306 12.8302 23.1992 12.4232 23.1992 11.9989C23.1992 11.5745 23.0306 11.1676 22.7306 10.8675C22.4305 10.5674 22.0236 10.3989 21.5992 10.3989H6.39922L10.7304 5.93008C11.0304 5.63003 11.1989 5.22314 11.1989 4.79888C11.1989 4.37461 11.0304 3.96772 10.7304 3.66768Z" fill="black"/>
</svg>
