<svg width="10" height="12" viewBox="0 0 10 12" fill="none" xmlns="http://www.w3.org/2000/svg">
<path d="M7.94585 10.83C7.37418 11.3842 6.75001 11.2967 6.14918 11.0342C5.51335 10.7658 4.93001 10.7542 4.25918 11.0342C3.41918 11.3958 2.97585 11.2908 2.47418 10.83C-0.372486 7.89583 0.0475144 3.4275 3.27918 3.26417C4.06668 3.305 4.61501 3.69583 5.07585 3.73083C5.76418 3.59083 6.42335 3.18833 7.15835 3.24083C8.03918 3.31083 8.70418 3.66083 9.14168 4.29083C7.32168 5.38167 7.75335 7.77917 9.42168 8.45C9.08918 9.325 8.65751 10.1942 7.94001 10.8358L7.94585 10.83ZM5.01751 3.22917C4.93001 1.92833 5.98585 0.855 7.19918 0.75C7.36835 2.255 5.83418 3.375 5.01751 3.22917Z" fill="black"/>
</svg>
