<svg width="19" height="18" viewBox="0 0 19 18" fill="none" xmlns="http://www.w3.org/2000/svg">
<path fill-rule="evenodd" clip-rule="evenodd" d="M18.75 9.00244C18.7501 12.5953 16.6133 15.844 13.3142 17.2668C10.0151 18.6897 6.18578 18.014 3.57281 15.5481C3.27147 15.2633 3.25804 14.7882 3.54281 14.4868C3.82758 14.1855 4.30272 14.172 4.60406 14.4568C7.59647 17.2799 12.3045 17.1655 15.1563 14.2005C18.0081 11.2355 17.9391 6.52658 15.0017 3.6463C12.0644 0.766026 7.35504 0.789538 4.44656 3.699C4.11562 4.03369 3.80438 4.36275 3.50156 4.68994L5.03062 6.22182C5.24537 6.43633 5.30965 6.75912 5.19347 7.03953C5.07728 7.31995 4.80353 7.50268 4.5 7.50244H0.75C0.335786 7.50244 0 7.16665 0 6.75244V3.00244C-0.000238895 2.69891 0.182495 2.42516 0.462907 2.30897C0.743319 2.19279 1.06612 2.25707 1.28063 2.47182L2.4375 3.63057C2.73938 3.30338 3.05062 2.97432 3.38062 2.6415C5.95371 0.0640366 9.82655 -0.708622 13.1917 0.684123C16.5569 2.07687 18.751 5.36045 18.75 9.00244ZM9.75 3.75244C9.33579 3.75244 9 4.08823 9 4.50244V9.00244C8.99992 9.26581 9.13799 9.50993 9.36375 9.64557L13.1138 11.8956C13.4689 12.1089 13.9298 11.9939 14.1431 11.6387C14.3564 11.2835 14.2414 10.8226 13.8862 10.6093L10.5 8.57775V4.50244C10.5 4.08823 10.1642 3.75244 9.75 3.75244Z" fill="#876370"/>
</svg>
