<svg width="10" height="14" viewBox="0 0 10 14" fill="none" xmlns="http://www.w3.org/2000/svg">
<path fill-rule="evenodd" clip-rule="evenodd" d="M6.55411 3.33333C5.55078 3.33333 4.83145 3.92733 4.37511 4.739C3.92645 5.536 3.72978 6.54233 3.72978 7.42733C3.72978 7.681 3.81378 7.944 3.90878 8.16833C4.00745 8.401 4.13545 8.63233 4.25878 8.83367C4.28723 8.88033 4.31556 8.92544 4.34378 8.969C4.3782 9.02272 4.39648 9.0852 4.39645 9.149V12.3777C4.39645 12.516 4.52378 12.6667 4.72978 12.6667C4.93578 12.6667 5.06311 12.516 5.06311 12.3777V9.314C5.06311 8.324 5.38778 7.33167 5.66011 6.49833L5.66778 6.47533C5.71623 6.328 5.76234 6.18533 5.80611 6.04733C5.87634 5.82622 5.94856 5.61789 6.02278 5.42233C6.04804 5.35539 6.09416 5.29834 6.15434 5.25964C6.21452 5.22093 6.28556 5.20262 6.35695 5.2074C6.42834 5.21219 6.4963 5.23982 6.55077 5.28621C6.60525 5.33259 6.64335 5.39528 6.65945 5.465L6.89811 6.491C6.92311 6.59833 6.98711 6.67767 7.06145 6.71833L8.60278 7.06267C8.62336 7.06731 8.64345 7.07389 8.66278 7.08233C8.79278 7.13867 8.96778 7.08233 9.03845 6.89067C9.10778 6.70167 9.02511 6.51033 8.89511 6.434L7.66178 6.21933C7.59735 6.20809 7.53764 6.17814 7.49011 6.13321C7.44257 6.08829 7.4093 6.03036 7.39445 5.96667L6.84178 3.59333C6.80178 3.42233 6.67111 3.33333 6.55411 3.33333ZM3.79411 4.412C4.32778 3.46267 5.23745 2.66667 6.55411 2.66667C7.01578 2.66667 7.38911 3.00433 7.49111 3.44233L7.99378 5.60067L9.05645 5.78567C9.08245 5.79011 9.10767 5.79767 9.13211 5.80833C9.63378 6.026 9.84845 6.61967 9.66378 7.121C9.47945 7.62233 8.93845 7.90667 8.42978 7.707L6.87845 7.36033C6.85788 7.3558 6.83779 7.34933 6.81845 7.341C6.69273 7.28474 6.58 7.20311 6.4873 7.10124C6.39461 6.99937 6.32396 6.87945 6.27978 6.749C6.00578 7.587 5.72978 8.46233 5.72978 9.314V12.3777C5.72978 12.9267 5.25978 13.3333 4.72978 13.3333C4.19978 13.3333 3.72978 12.9267 3.72978 12.3777V9.24567C3.71645 9.22478 3.70323 9.20344 3.69011 9.18167C3.54029 8.9405 3.40827 8.68872 3.29511 8.42833C3.18745 8.175 3.06311 7.814 3.06311 7.42733C3.06311 6.45933 3.27611 5.333 3.79411 4.412ZM0.102114 2.025C0.143645 1.94701 0.214444 1.8887 0.298951 1.86288C0.383457 1.83707 0.474756 1.84586 0.552781 1.88733L2.41211 2.87567C2.46779 2.90529 2.51393 2.95011 2.54515 3.00491C2.57638 3.05971 2.59142 3.12224 2.58852 3.18525C2.58562 3.24825 2.56491 3.30914 2.52878 3.36085C2.49266 3.41255 2.44261 3.45294 2.38445 3.47733L1.81445 3.716L2.85645 4.291C2.9325 4.33441 2.98841 4.406 3.01211 4.4903C3.0358 4.5746 3.02537 4.66484 2.98307 4.74151C2.94078 4.81819 2.87 4.87513 2.78606 4.90005C2.70211 4.92497 2.61173 4.91585 2.53445 4.87467L0.888781 3.96667C0.83392 3.93639 0.788702 3.89127 0.758313 3.83648C0.727925 3.78168 0.713597 3.71943 0.716972 3.65686C0.720348 3.59429 0.74129 3.53394 0.777397 3.48273C0.813505 3.43152 0.863315 3.39153 0.921114 3.36733L1.47778 3.134L0.240114 2.476C0.201424 2.45546 0.167161 2.42751 0.139283 2.39372C0.111405 2.35993 0.0904588 2.32099 0.0776426 2.2791C0.0648263 2.23722 0.060391 2.19322 0.0645899 2.14961C0.0687889 2.10601 0.0815397 2.06367 0.102114 2.025ZM0.00711389 5.326C0.0437806 5.13933 0.214781 5.017 0.388781 5.053L1.61078 5.30633C1.66958 5.31953 1.72353 5.34891 1.76652 5.39114C1.80952 5.43337 1.83986 5.48678 1.85411 5.54533C1.88611 5.668 1.85178 5.801 1.76445 5.89067L1.49878 6.164L2.14478 6.332C2.31645 6.37667 2.41945 6.56267 2.37445 6.74767C2.32945 6.93267 2.15345 7.04633 1.98145 7.00167L0.773114 6.687C0.716389 6.67097 0.665059 6.63988 0.624567 6.59704C0.584075 6.5542 0.555929 6.5012 0.543114 6.44367C0.514114 6.32267 0.549114 6.19367 0.634114 6.106L0.875447 5.858L0.254781 5.72967C0.0811139 5.69367 -0.0298861 5.51267 0.00711389 5.326ZM7.72978 2C7.90659 2 8.07616 1.92976 8.20119 1.80474C8.32621 1.67971 8.39645 1.51014 8.39645 1.33333C8.39645 1.15652 8.32621 0.986953 8.20119 0.861929C8.07616 0.736905 7.90659 0.666667 7.72978 0.666667C7.55297 0.666667 7.3834 0.736905 7.25838 0.861929C7.13335 0.986953 7.06311 1.15652 7.06311 1.33333C7.06311 1.51014 7.13335 1.67971 7.25838 1.80474C7.3834 1.92976 7.55297 2 7.72978 2ZM7.72978 2.66667C8.0834 2.66667 8.42254 2.52619 8.67259 2.27614C8.92264 2.02609 9.06311 1.68696 9.06311 1.33333C9.06311 0.979711 8.92264 0.640573 8.67259 0.390524C8.42254 0.140476 8.0834 0 7.72978 0C7.37616 0 7.03702 0.140476 6.78697 0.390524C6.53692 0.640573 6.39645 0.979711 6.39645 1.33333C6.39645 1.68696 6.53692 2.02609 6.78697 2.27614C7.03702 2.52619 7.37616 2.66667 7.72978 2.66667Z" fill="black"/>
</svg>
