<svg width="20" height="20" viewBox="0 0 20 20" fill="none" xmlns="http://www.w3.org/2000/svg">
<path fill-rule="evenodd" clip-rule="evenodd" d="M9.80859 5.31006C7.32331 5.31006 5.30859 7.32478 5.30859 9.81006C5.30859 12.2953 7.32331 14.3101 9.80859 14.3101C12.2939 14.3101 14.3086 12.2953 14.3086 9.81006C14.306 7.32585 12.2928 5.31264 9.80859 5.31006ZM9.80859 12.8101C8.15174 12.8101 6.80859 11.4669 6.80859 9.81006C6.80859 8.1532 8.15174 6.81006 9.80859 6.81006C11.4654 6.81006 12.8086 8.1532 12.8086 9.81006C12.8086 11.4669 11.4654 12.8101 9.80859 12.8101ZM18.0586 10.0126C18.0623 9.87756 18.0623 9.74256 18.0586 9.60756L19.4573 7.86006C19.6061 7.67399 19.6576 7.42832 19.5961 7.19818C19.3668 6.33625 19.0238 5.50867 18.5761 4.73725C18.4572 4.53255 18.2487 4.39598 18.0136 4.36881L15.7898 4.12131C15.6973 4.02381 15.6036 3.93006 15.5086 3.84006L15.2461 1.61068C15.2187 1.37537 15.0818 1.16682 14.8767 1.04818C14.105 0.601321 13.2775 0.258653 12.4158 0.0291212C12.1855 -0.032105 11.9398 0.0197453 11.7539 0.168809L10.0111 1.56006C9.87609 1.56006 9.74109 1.56006 9.60609 1.56006L7.85859 0.164121C7.67252 0.0153844 7.42686 -0.0361145 7.19672 0.0253711C6.33492 0.255084 5.50739 0.598074 4.73578 1.04537C4.53109 1.16423 4.39451 1.37274 4.36734 1.60787L4.11984 3.83537C4.02234 3.9285 3.92859 4.02225 3.83859 4.11662L1.60922 4.37256C1.3739 4.39994 1.16536 4.53688 1.04672 4.74193C0.599856 5.51365 0.257189 6.34116 0.0276563 7.20287C-0.0335698 7.43316 0.0182805 7.67884 0.167344 7.86475L1.55859 9.60756C1.55859 9.74256 1.55859 9.87756 1.55859 10.0126L0.162656 11.7601C0.0139196 11.9461 -0.0375793 12.1918 0.0239062 12.4219C0.253209 13.2839 0.596221 14.1115 1.04391 14.8829C1.16276 15.0876 1.37127 15.2241 1.60641 15.2513L3.83016 15.4988C3.92328 15.5963 4.01703 15.6901 4.11141 15.7801L4.37109 18.0094C4.39847 18.2447 4.53542 18.4533 4.74047 18.5719C5.51219 19.0188 6.33969 19.3615 7.20141 19.591C7.43169 19.6522 7.67737 19.6004 7.86328 19.4513L9.60609 18.0601C9.74109 18.0638 9.87609 18.0638 10.0111 18.0601L11.7586 19.4588C11.9447 19.6075 12.1903 19.659 12.4205 19.5976C13.2824 19.3683 14.11 19.0252 14.8814 18.5776C15.0861 18.4587 15.2227 18.2502 15.2498 18.0151L15.4973 15.7913C15.5948 15.6988 15.6886 15.6051 15.7786 15.5101L18.008 15.2476C18.2433 15.2202 18.4518 15.0832 18.5705 14.8782C19.0173 14.1065 19.36 13.279 19.5895 12.4172C19.6508 12.187 19.5989 11.9413 19.4498 11.7554L18.0586 10.0126ZM16.5492 9.40318C16.5652 9.6742 16.5652 9.94592 16.5492 10.2169C16.538 10.4025 16.5962 10.5856 16.7123 10.7307L18.0427 12.3929C17.89 12.878 17.6946 13.3486 17.4586 13.7991L15.3398 14.0391C15.1553 14.0596 14.985 14.1478 14.8617 14.2866C14.6813 14.4896 14.4891 14.6818 14.2861 14.8622C14.1473 14.9855 14.0591 15.1559 14.0386 15.3404L13.8033 17.4572C13.3528 17.6933 12.8822 17.8888 12.397 18.0413L10.7339 16.711C10.6008 16.6047 10.4355 16.5468 10.2652 16.5469H10.2202C9.94914 16.5629 9.67742 16.5629 9.40641 16.5469C9.22086 16.5358 9.03777 16.5939 8.89266 16.7101L7.22578 18.0413C6.74066 17.8887 6.27006 17.6932 5.81953 17.4572L5.57953 15.3413C5.55905 15.1568 5.47086 14.9864 5.33203 14.8632C5.12907 14.6827 4.93687 14.4905 4.75641 14.2876C4.63316 14.1487 4.4628 14.0605 4.27828 14.0401L2.16141 13.8038C1.92534 13.3533 1.72988 12.8827 1.57734 12.3976L2.90766 10.7344C3.02382 10.5893 3.08195 10.4062 3.07078 10.2207C3.05484 9.94967 3.05484 9.67795 3.07078 9.40693C3.08195 9.22139 3.02382 9.0383 2.90766 8.89318L1.57734 7.22725C1.72999 6.74212 1.92545 6.27152 2.16141 5.821L4.27734 5.581C4.46186 5.56051 4.63222 5.47233 4.75547 5.3335C4.93593 5.13054 5.12813 4.93833 5.33109 4.75787C5.47048 4.63454 5.55903 4.46379 5.57953 4.27881L5.81484 2.16287C6.26532 1.9268 6.73593 1.73134 7.22109 1.57881L8.88422 2.90912C9.02934 3.02528 9.21242 3.08342 9.39797 3.07225C9.66898 3.05631 9.9407 3.05631 10.2117 3.07225C10.3973 3.08342 10.5804 3.02528 10.7255 2.90912L12.3914 1.57881C12.8765 1.73146 13.3471 1.92691 13.7977 2.16287L14.0377 4.27881C14.0581 4.46332 14.1463 4.63368 14.2852 4.75693C14.4881 4.93739 14.6803 5.1296 14.8608 5.33256C14.984 5.47139 15.1544 5.55958 15.3389 5.58006L17.4558 5.81537C17.6919 6.26584 17.8873 6.73645 18.0398 7.22162L16.7095 8.88475C16.5923 9.03109 16.5341 9.21605 16.5464 9.40318H16.5492Z" fill="#171212"/>
</svg>
