<svg width="16" height="16" viewBox="0 0 16 16" fill="none" xmlns="http://www.w3.org/2000/svg">
<g clip-path="url(#clip0_722_25510)">
<path d="M8 0.5C3.858 0.5 0.5 3.858 0.5 8C0.5 12.142 3.858 15.5 8 15.5C12.1427 15.5 15.5 12.142 15.5 8C15.5 3.858 12.1425 0.5 8 0.5ZM8 15C4.14025 15 1 11.8597 1 8C1 4.14025 4.14025 1 8 1C11.8597 1 15 4.14025 15 8C15 11.8597 11.8597 15 8 15Z" fill="black"/>
<path d="M5.125 7.8667C5.74632 7.8667 6.25 7.36302 6.25 6.7417C6.25 6.12038 5.74632 5.6167 5.125 5.6167C4.50368 5.6167 4 6.12038 4 6.7417C4 7.36302 4.50368 7.8667 5.125 7.8667Z" fill="black"/>
<path d="M10.875 7.8667C11.4963 7.8667 12 7.36302 12 6.7417C12 6.12038 11.4963 5.6167 10.875 5.6167C10.2537 5.6167 9.75 6.12038 9.75 6.7417C9.75 7.36302 10.2537 7.8667 10.875 7.8667Z" fill="black"/>
<path d="M9.19744 10.173H6.80269C6.71869 9.49323 6.37094 8.94223 5.91394 8.74048C6.16919 9.23073 6.32219 9.83473 6.32219 10.4905C6.32219 11.1467 6.16944 11.7507 5.91394 12.2407C6.37119 12.039 6.71894 11.4872 6.80269 10.8075H9.19744C9.28094 11.4875 9.62819 12.0392 10.0857 12.2407C9.83044 11.7507 9.67794 11.1467 9.67794 10.4905C9.67794 9.83473 9.83019 9.23073 10.0857 8.74048C9.62869 8.94248 9.28144 9.49348 9.19744 10.173ZM6.74769 4.39498C6.88294 4.27773 6.50494 3.87973 6.39419 3.97648C5.99436 4.31381 5.52511 4.55888 5.01982 4.69426C4.51452 4.82963 3.9856 4.85199 3.47069 4.75973C3.32619 4.73148 3.19869 5.26498 3.37444 5.29873C3.96856 5.40537 4.5789 5.37966 5.16196 5.22345C5.74502 5.06724 6.28645 4.78437 6.74769 4.39498ZM12.5279 4.72173C11.4859 4.90873 10.4142 4.62173 9.60519 3.93848C9.49444 3.84123 9.11644 4.23973 9.25219 4.35698C9.71339 4.74633 10.2548 5.02919 10.8378 5.1854C11.4208 5.34161 12.0311 5.36733 12.6252 5.26073C12.8009 5.22698 12.6729 4.69323 12.5279 4.72173Z" fill="black"/>
</g>
<defs>
<clipPath id="clip0_722_25510">
<rect width="16" height="16" fill="white"/>
</clipPath>
</defs>
</svg>
