<svg width="10" height="14" viewBox="0 0 10 14" fill="none" xmlns="http://www.w3.org/2000/svg">
<path fill-rule="evenodd" clip-rule="evenodd" d="M8.5194 5.37345C8.44587 5.13283 8.28433 4.92877 8.06701 4.80197C7.84968 4.67518 7.59255 4.63497 7.34689 4.68936C7.10124 4.74375 6.88511 4.88874 6.74162 5.09542C6.59813 5.3021 6.53783 5.55527 6.57273 5.80445C6.57518 5.82178 6.57896 5.839 6.58407 5.85611C6.69173 6.20745 6.83907 6.56945 6.97407 6.89811C6.5044 6.86545 6.04007 6.83345 5.9674 6.83345C5.82473 6.83345 5.71207 6.86445 5.68207 6.87278L5.68073 6.87311C5.64415 6.88312 5.608 6.89469 5.5724 6.90778C5.52373 6.92545 5.47107 6.94678 5.43307 6.96211L5.40473 6.97378C5.32707 7.00545 5.24973 7.03678 5.1644 7.06778C4.94373 7.14778 4.81107 7.16945 4.76707 7.16778C4.72907 7.16611 4.6114 7.13978 4.42107 7.06445C4.34707 7.03445 4.28073 7.00545 4.2144 6.97678L4.19207 6.96678C4.16073 6.95311 4.1154 6.93345 4.07407 6.91678C4.04208 6.90408 4.00961 6.89263 3.97673 6.88245C3.875 6.85049 3.76904 6.83397 3.6624 6.83345C3.60173 6.83345 3.1044 6.86545 2.59573 6.89811L2.61573 6.85645L2.79007 6.49011C2.80773 6.45245 2.82707 6.41445 2.8494 6.37078L2.85507 6.35945C2.8784 6.31278 2.90507 6.26078 2.93007 6.20678C2.98884 6.08531 3.03057 5.95632 3.05407 5.82345C3.07464 5.69374 3.06947 5.56126 3.03884 5.43355C3.00822 5.30585 2.95274 5.18543 2.87557 5.07917C2.79841 4.97291 2.70107 4.88289 2.58911 4.81424C2.47715 4.7456 2.35277 4.69968 2.22307 4.67911C1.7164 4.59878 1.30407 4.91911 1.13107 5.31511C0.992347 5.62624 0.846419 5.9341 0.693401 6.23845L0.613401 6.40211C0.433401 6.76811 0.252734 7.14545 0.0987342 7.53678C0.0763817 7.59214 0.0570205 7.64867 0.0407342 7.70611L0.0404008 7.70711C0.0334008 7.73211 0.00706754 7.82578 0.00140088 7.94378C-0.0057923 8.07976 0.0147702 8.21578 0.0618359 8.34356C0.108901 8.47134 0.181485 8.58821 0.275166 8.68703C0.368847 8.78586 0.481665 8.86458 0.606748 8.91841C0.731831 8.97223 0.866562 9.00003 1.00273 9.00011C1.0694 9.00045 1.62207 8.96511 2.1624 8.93011L2.49673 8.90878V9.33111L1.62607 9.88645C1.45495 9.9955 1.32106 10.154 1.24217 10.341C1.16329 10.5279 1.14314 10.7344 1.1844 10.9331L1.51773 12.5371C1.57007 12.788 1.71675 13.0093 1.92749 13.1551C2.13823 13.301 2.39693 13.3604 2.6502 13.3211C2.90347 13.2817 3.13196 13.1466 3.2885 12.9437C3.44503 12.7407 3.51767 12.4854 3.4914 12.2304L3.40973 11.4458L3.7764 11.3338H5.95573L6.25207 11.4304L6.16873 12.2304C6.14247 12.4854 6.2151 12.7407 6.37164 12.9437C6.52818 13.1466 6.75667 13.2817 7.00993 13.3211C7.2632 13.3604 7.52191 13.301 7.73265 13.1551C7.94339 13.0093 8.09007 12.788 8.1424 12.5371L8.47573 10.9331C8.51554 10.7415 8.49823 10.5423 8.42594 10.3604C8.35365 10.1785 8.22957 10.0218 8.06907 9.90978L7.1634 9.27711V8.91545L7.38007 8.93078C7.87007 8.96478 8.37573 8.99978 8.44973 8.99978C8.69927 8.99994 8.9399 8.90711 9.12468 8.7394C9.30946 8.5717 9.42511 8.34116 9.44907 8.09278C9.46307 7.95278 9.44373 7.83945 9.43873 7.80878V7.80778M4.17507 7.68344C4.3734 7.76211 4.58073 7.82678 4.73973 7.83345C4.92307 7.84078 5.16107 7.77745 5.3914 7.69411C5.47971 7.66184 5.56729 7.62761 5.65407 7.59145L5.68407 7.57945C5.77407 7.54278 5.86807 7.49978 5.9674 7.49978H5.9684L5.9974 7.50111L6.07973 7.50578C6.14773 7.50978 6.23873 7.51578 6.34473 7.52278L7.09373 7.57411L7.4604 7.59978C7.51662 7.60365 7.5729 7.59321 7.62399 7.56942C7.67508 7.54564 7.7193 7.5093 7.75253 7.46378C7.78575 7.41827 7.8069 7.36508 7.81399 7.30917C7.82108 7.25327 7.81388 7.19648 7.79307 7.14411L7.72907 6.98378C7.68684 6.87845 7.64385 6.77289 7.60007 6.66711C7.46673 6.34245 7.33207 6.01445 7.23073 5.68978C7.22497 5.60778 7.2497 5.52654 7.30018 5.46167C7.35066 5.3968 7.42334 5.35287 7.50424 5.33832C7.58514 5.32377 7.66856 5.33962 7.73849 5.38284C7.80841 5.42605 7.8599 5.49358 7.88307 5.57244L7.8904 5.59511C7.99473 5.87645 8.12573 6.16478 8.2514 6.44178C8.30507 6.56011 8.35807 6.67645 8.4074 6.78945C8.57807 7.17945 8.71873 7.54945 8.78107 7.91878V7.91978C8.7834 7.93311 8.79073 7.97611 8.78573 8.02645C8.77823 8.11032 8.73956 8.18834 8.67736 8.24511C8.61516 8.30188 8.53395 8.33328 8.44973 8.33311H8.44873L8.42207 8.33178L8.34307 8.32745L8.0874 8.31078C7.8824 8.29745 7.6194 8.27911 7.3574 8.26078L6.85307 8.22578C6.80745 8.22262 6.76168 8.22889 6.71859 8.24418C6.6755 8.25947 6.63602 8.28346 6.6026 8.31466C6.56917 8.34587 6.54253 8.38361 6.52432 8.42555C6.50611 8.46749 6.49672 8.51272 6.49673 8.55844V9.45078C6.49675 9.50446 6.50973 9.55734 6.53456 9.60493C6.5594 9.65252 6.59537 9.69341 6.6394 9.72411L7.6874 10.4554C7.74096 10.4928 7.78237 10.5451 7.80649 10.6057C7.83061 10.6664 7.83637 10.7329 7.82307 10.7968L7.48973 12.4011C7.47255 12.485 7.42373 12.5591 7.35339 12.608C7.28305 12.6569 7.19659 12.6768 7.11195 12.6636C7.02731 12.6505 6.95099 12.6052 6.89881 12.5373C6.84664 12.4694 6.82262 12.3839 6.83173 12.2988L6.94273 11.2304C6.9506 11.1546 6.93222 11.0784 6.89067 11.0144C6.84912 10.9505 6.7869 10.9027 6.7144 10.8791L6.11173 10.6828C6.07836 10.6719 6.04349 10.6664 6.0084 10.6664H3.72673C3.69374 10.6665 3.66094 10.6714 3.6294 10.6811L2.95273 10.8878C2.87881 10.9103 2.81501 10.9579 2.77227 11.0223C2.72952 11.0866 2.71048 11.1639 2.7184 11.2408L2.8284 12.2988C2.83733 12.3839 2.81319 12.4692 2.76099 12.5369C2.70878 12.6047 2.63251 12.6499 2.54795 12.663C2.46339 12.6761 2.37704 12.6562 2.30676 12.6074C2.23647 12.5586 2.18765 12.4846 2.1704 12.4008L1.83707 10.7968C1.8233 10.7305 1.83002 10.6617 1.85634 10.5993C1.88266 10.537 1.92732 10.4841 1.9844 10.4478L3.0094 9.79445C3.05661 9.76431 3.09547 9.72278 3.12238 9.67366C3.1493 9.62455 3.1634 9.56945 3.1634 9.51345V8.55278C3.1634 8.50721 3.15406 8.46212 3.13595 8.4203C3.11784 8.37848 3.09135 8.34082 3.05811 8.30964C3.02487 8.27846 2.98559 8.25443 2.9427 8.23903C2.89981 8.22364 2.85421 8.2172 2.80873 8.22011L2.1974 8.25945L1.39473 8.31045C1.26409 8.31845 1.13343 8.32601 1.00273 8.33311C0.936078 8.33294 0.870972 8.31299 0.815666 8.27578C0.760361 8.23858 0.717344 8.18579 0.692068 8.12411C0.663401 8.05411 0.666401 7.99245 0.667067 7.97711C0.669401 7.93378 0.679401 7.89711 0.682401 7.88611L0.682734 7.88478C0.692401 7.85078 0.706068 7.81311 0.719401 7.78045C0.862401 7.41611 1.03273 7.06011 1.21173 6.69545L1.2904 6.53545C1.4434 6.22478 1.6004 5.90611 1.74207 5.58145C1.82207 5.39811 1.9774 5.31478 2.11873 5.33711C2.16199 5.34397 2.20347 5.35928 2.24081 5.38218C2.27814 5.40507 2.3106 5.4351 2.33632 5.47054C2.36205 5.50599 2.38054 5.54616 2.39073 5.58875C2.40092 5.63134 2.40263 5.67553 2.39573 5.71878C2.38175 5.79105 2.35786 5.86104 2.32473 5.92678C2.30573 5.96845 2.28473 6.01011 2.26073 6.05711L2.2544 6.06945C2.23307 6.11145 2.20973 6.15778 2.18773 6.20411L2.01373 6.56878L1.74973 7.12411C1.72489 7.17656 1.71417 7.23458 1.71864 7.29245C1.7231 7.35031 1.7426 7.406 1.77519 7.45402C1.80778 7.50203 1.85235 7.54071 1.90448 7.56621C1.9566 7.59172 2.01449 7.60317 2.0724 7.59945L2.5194 7.57045L3.55673 7.50545L3.66107 7.49978H3.6624C3.83673 7.49978 4.02107 7.62245 4.17507 7.68344ZM4.71073 0.022112C4.75162 0.00642916 4.79519 -0.00104475 4.83896 0.000117427C4.88274 0.0012796 4.92585 0.011055 4.96585 0.0288852C5.00584 0.0467153 5.04193 0.0722509 5.07205 0.104033C5.10217 0.135815 5.12574 0.17322 5.1414 0.214112L5.54373 1.26211C5.56484 1.31709 5.57101 1.37667 5.56161 1.43481C5.55221 1.49294 5.52758 1.54754 5.49022 1.59306C5.45286 1.63859 5.40411 1.6734 5.34893 1.69396C5.29375 1.71452 5.2341 1.72009 5.17607 1.71011L4.8494 1.65378L5.0624 2.08911C5.1013 2.1685 5.10707 2.26009 5.07844 2.34373C5.04981 2.42737 4.98912 2.49621 4.90973 2.53511C4.83035 2.57401 4.73876 2.57978 4.65512 2.55115C4.57148 2.52252 4.50263 2.46183 4.46373 2.38245L3.96373 1.36178C3.93669 1.30664 3.9254 1.24511 3.93111 1.18397C3.93682 1.12282 3.95932 1.06444 3.99611 1.01527C4.0329 0.966102 4.08256 0.928051 4.13961 0.905318C4.19666 0.882585 4.25888 0.876054 4.3194 0.886445L4.7114 0.953779L4.51907 0.453112C4.50332 0.41223 4.4958 0.368645 4.49691 0.324851C4.49802 0.281056 4.50776 0.237911 4.52556 0.197882C4.54336 0.157853 4.56888 0.121725 4.60065 0.0915653C4.63243 0.0614052 4.66983 0.0378043 4.71073 0.022112ZM1.2634 0.0954453C1.32653 0.0335698 1.41164 -0.000698746 1.50003 0.000176396C1.58842 0.00105154 1.67285 0.0369989 1.73473 0.100112L3.04207 1.43345C3.08802 1.48032 3.1191 1.53972 3.13142 1.60419C3.14375 1.66866 3.13677 1.73534 3.11135 1.79586C3.08593 1.85637 3.04321 1.90804 2.98855 1.94438C2.93388 1.98071 2.86971 2.0001 2.80407 2.00011H2.30973L2.74507 2.42945C2.80639 2.49185 2.84071 2.57586 2.84063 2.66335C2.84056 2.75084 2.80609 2.83479 2.74466 2.89709C2.68324 2.95939 2.59978 2.99505 2.5123 2.99636C2.42482 2.99767 2.34033 2.96454 2.27707 2.90411L1.26273 1.90411C1.21566 1.85768 1.18345 1.79831 1.17021 1.73353C1.15697 1.66875 1.1633 1.60149 1.18838 1.54032C1.21347 1.47914 1.25618 1.42681 1.31109 1.38997C1.36599 1.35313 1.43062 1.33346 1.49673 1.33345H2.01007L1.25873 0.566779C1.19686 0.503653 1.16259 0.418535 1.16347 0.330146C1.16434 0.241756 1.20029 0.157334 1.2634 0.0954453ZM8.39907 0.0977788C8.46156 0.160288 8.49666 0.245057 8.49666 0.333445C8.49666 0.421833 8.46156 0.506603 8.39907 0.569112L7.63473 1.33345H8.1374C8.20316 1.33346 8.26744 1.35292 8.32217 1.38938C8.37689 1.42584 8.41961 1.47767 8.44494 1.53836C8.47027 1.59904 8.47709 1.66586 8.46454 1.7304C8.45199 1.79495 8.42063 1.85435 8.3744 1.90111L7.38607 2.90111C7.32392 2.96401 7.23933 2.99965 7.1509 3.00018C7.06248 3.00071 6.97747 2.96609 6.91457 2.90395C6.85167 2.8418 6.81603 2.75721 6.8155 2.66878C6.81497 2.58036 6.84959 2.49535 6.91173 2.43245L7.33907 2.00011H6.83007C6.76415 2.0001 6.69972 1.98054 6.64491 1.94391C6.59011 1.90728 6.5474 1.85523 6.52217 1.79433C6.49695 1.73343 6.49035 1.66642 6.50321 1.60177C6.51606 1.53712 6.5478 1.47773 6.5944 1.43111L7.92773 0.0977788C7.99024 0.0352884 8.07501 0.000183231 8.1634 0.000183231C8.25179 0.000183231 8.33656 0.0352884 8.39907 0.0977788Z" fill="black"/>
</svg>
