<svg width="13" height="13" viewBox="0 0 13 13" fill="none" xmlns="http://www.w3.org/2000/svg">
<path d="M9.44 0.250005C9.64833 0.250005 9.85198 0.311782 10.0252 0.427524C10.1984 0.543266 10.3334 0.707774 10.4132 0.900245C10.4929 1.09272 10.5137 1.30451 10.4731 1.50883C10.4325 1.71316 10.3321 1.90085 10.1848 2.04816C10.0375 2.19547 9.84982 2.29579 9.6455 2.33643C9.44117 2.37708 9.22938 2.35622 9.03691 2.27649C8.84444 2.19677 8.67993 2.06176 8.56419 1.88854C8.44844 1.71532 8.38667 1.51167 8.38667 1.30334C8.38623 1.16489 8.41317 1.02772 8.46595 0.899725C8.51873 0.77173 8.5963 0.655437 8.6942 0.557538C8.7921 0.459639 8.90839 0.382068 9.03639 0.329289C9.16438 0.27651 9.30155 0.249565 9.44 0.250005ZM5.35667 2.34001H8.02333C8.07235 2.33981 8.12091 2.34944 8.16614 2.36833C8.21137 2.38723 8.25235 2.415 8.28667 2.45001L10.0333 4.19001L11.2533 2.70667C11.314 2.63214 11.4017 2.58468 11.4973 2.57469C11.5929 2.56469 11.6886 2.59297 11.7633 2.65334L12.0133 2.83667C12.0524 2.86657 12.0851 2.90411 12.1092 2.947C12.1334 2.98989 12.1486 3.03725 12.1539 3.08619C12.1592 3.13513 12.1545 3.18464 12.14 3.23171C12.1256 3.27878 12.1018 3.32243 12.07 3.36001L10.3733 5.41667C10.3409 5.45603 10.3006 5.48812 10.255 5.51087C10.2094 5.53362 10.1595 5.54651 10.1085 5.54871C10.0576 5.55091 10.0068 5.54237 9.95937 5.52364C9.91195 5.50491 9.86901 5.47642 9.83333 5.44001L8.59333 4.26001L7 6.02667L8.59 7.63001C8.63316 7.67274 8.6647 7.72579 8.68161 7.78412C8.69853 7.84246 8.70027 7.90414 8.68667 7.96334L7.77667 12.2967C7.767 12.3457 7.74731 12.3923 7.71882 12.4334C7.69033 12.4745 7.65366 12.5093 7.61111 12.5356C7.56855 12.5619 7.52102 12.5791 7.47151 12.5862C7.42199 12.5932 7.37154 12.59 7.32333 12.5767L6.86667 12.45C6.77592 12.4271 6.69767 12.3697 6.64851 12.2901C6.59935 12.2104 6.58315 12.1147 6.60333 12.0233L7.37667 8.48667L5.71 6.82L4.06333 8.67001C4.03838 8.69651 4.01041 8.72 3.98 8.74001C3.89244 8.80596 3.78889 8.84738 3.68 8.86001H0.633333C0.532242 8.86001 0.435241 8.82008 0.363448 8.74891C0.291654 8.67774 0.250879 8.58109 0.25 8.48001V8.10334C0.254852 8.00324 0.296796 7.90853 0.367661 7.83767C0.438525 7.7668 0.533234 7.72486 0.633333 7.72001H3.12333L6.76 3.31667H5.61L4.08 5.23001C4.02062 5.3056 3.93561 5.35684 3.84104 5.37404C3.74646 5.39123 3.64886 5.3732 3.56667 5.32334L3.36667 5.17001C3.3289 5.1402 3.29749 5.10313 3.27429 5.06098C3.25109 5.01883 3.23658 4.97246 3.2316 4.9246C3.22663 4.87675 3.2313 4.82838 3.24534 4.78236C3.25938 4.73634 3.2825 4.6936 3.31333 4.65667L5.07333 2.50334C5.10696 2.45992 5.14984 2.42453 5.19884 2.39973C5.24785 2.37494 5.30176 2.36137 5.35667 2.36001V2.34001Z" stroke="black" stroke-width="0.5" stroke-linecap="round" stroke-linejoin="round"/>
</svg>
