<svg width="14" height="13" viewBox="0 0 14 13" fill="none" xmlns="http://www.w3.org/2000/svg">
<path fill-rule="evenodd" clip-rule="evenodd" d="M4.71173 12.6254C4.66813 12.6214 4.62574 12.6088 4.587 12.5884C4.54825 12.568 4.51391 12.5402 4.48593 12.5065C4.45794 12.4728 4.43687 12.434 4.42391 12.3922C4.41095 12.3503 4.40636 12.3064 4.41039 12.2628L4.67806 9.35743L6.0264 10.0708L6.33639 8.2061C6.35094 8.11888 6.39953 8.04102 6.47148 7.98964C6.50711 7.96419 6.5474 7.94602 6.59005 7.93614C6.6327 7.92627 6.67688 7.9249 6.72006 7.9321C6.76324 7.9393 6.80459 7.95493 6.84173 7.97811C6.87887 8.00129 6.91108 8.03156 6.93652 8.06718C6.96197 8.10281 6.98014 8.1431 6.99001 8.18575C6.99989 8.2284 7.00126 8.27258 6.99406 8.31576L6.53206 11.0924L5.25006 10.4144L5.07439 12.3241C5.07038 12.3677 5.05781 12.4101 5.03741 12.4488C5.01701 12.4876 4.98917 12.5219 4.95549 12.5499C4.92181 12.5779 4.88295 12.599 4.84112 12.6119C4.7993 12.6249 4.75533 12.6295 4.71173 12.6254ZM0.0423952 8.14343C0.0210275 8.10522 0.00739708 8.06317 0.0022824 8.01969C-0.00283227 7.9762 0.000669068 7.93214 0.0125864 7.89001C0.0245037 7.84788 0.0446035 7.80852 0.0717379 7.77416C0.0988722 7.7398 0.13251 7.71112 0.170729 7.68976L2.8184 6.2101L3.00139 7.79576L4.81573 6.9491C4.89587 6.91175 4.98756 6.90776 5.07064 6.93801C5.15372 6.96827 5.22138 7.03029 5.25873 7.11043C5.29608 7.19057 5.30007 7.28226 5.26981 7.36534C5.23955 7.44842 5.17753 7.51608 5.09739 7.55343L2.44506 8.7911L2.27073 7.2801L0.496062 8.27176C0.418918 8.31481 0.327839 8.32548 0.242837 8.30141C0.157835 8.27735 0.0855276 8.22053 0.0423952 8.14343ZM1.59206 1.40976C1.63793 1.33425 1.7119 1.28004 1.79772 1.25904C1.88353 1.23804 1.97417 1.25197 2.04973 1.29776L4.70539 2.90943L3.37973 3.8771L5.06906 5.07943C5.10474 5.10482 5.13506 5.13699 5.15831 5.17409C5.18155 5.2112 5.19726 5.25253 5.20453 5.29571C5.21181 5.33889 5.2105 5.38307 5.2007 5.42575C5.1909 5.46843 5.17278 5.50875 5.14739 5.54443C5.12201 5.58011 5.08984 5.61043 5.05273 5.63368C5.01562 5.65692 4.9743 5.67263 4.93112 5.6799C4.88794 5.68717 4.84375 5.68587 4.80107 5.67607C4.7584 5.66627 4.71807 5.64815 4.68239 5.62276L2.2394 3.8841L3.50473 2.96076L1.70406 1.86743C1.62855 1.82156 1.57434 1.74759 1.55334 1.66178C1.53234 1.57596 1.54627 1.48532 1.59206 1.40976ZM8.89273 0.0050967C8.97969 0.0205396 9.05696 0.0698632 9.10759 0.142236C9.15821 0.214609 9.17804 0.304114 9.16273 0.391097L8.66206 3.23176L7.39439 2.42076L6.93906 4.22176C6.91693 4.30695 6.86199 4.37993 6.78625 4.42477C6.71051 4.46961 6.62011 4.48267 6.53477 4.46111C6.44944 4.43954 6.37609 4.3851 6.33075 4.30966C6.2854 4.23422 6.27173 4.14391 6.29273 4.05843L6.97473 1.36043L8.17906 2.13143L8.50639 0.27543C8.514 0.232308 8.53003 0.191107 8.55356 0.154181C8.5771 0.117255 8.60768 0.0853274 8.64355 0.0602229C8.67943 0.0351183 8.7199 0.0173285 8.76266 0.00786982C8.80541 -0.0015889 8.84961 -0.00253131 8.89273 0.0050967ZM13.0917 4.6801C13.1128 4.71846 13.1261 4.76061 13.1309 4.80412C13.1357 4.84763 13.1319 4.89167 13.1197 4.9337C13.1074 4.97573 13.087 5.01495 13.0597 5.04911C13.0323 5.08326 12.9984 5.11169 12.9601 5.13276L10.4214 6.5251L10.2604 5.0221L8.56139 5.79876C8.48095 5.83554 8.38918 5.83885 8.30629 5.80797C8.2234 5.77709 8.15617 5.71455 8.1194 5.6341C8.08262 5.55365 8.07931 5.46188 8.11019 5.37899C8.14107 5.2961 8.20361 5.22887 8.28406 5.1921L10.8244 4.03143L10.9777 5.45943L12.6394 4.5481C12.7169 4.50566 12.8081 4.49572 12.8929 4.52047C12.9777 4.54522 13.0492 4.60264 13.0917 4.6801ZM11.3617 10.7221C11.3159 10.7976 11.2419 10.8518 11.1561 10.8728C11.0703 10.8938 10.9796 10.8799 10.9041 10.8341L8.39773 9.3131L9.63673 8.40876L8.08606 7.3051C8.05039 7.27971 8.02006 7.24754 7.99682 7.21043C7.97357 7.17332 7.95786 7.132 7.95059 7.08882C7.94332 7.04564 7.94462 7.00145 7.95442 6.95878C7.96423 6.9161 7.98234 6.87577 8.00773 6.8401C8.059 6.76805 8.1368 6.71932 8.224 6.70463C8.26718 6.69735 8.31137 6.69865 8.35405 6.70846C8.39673 6.71826 8.43705 6.73637 8.47273 6.76176L10.7767 8.40176L9.5984 9.26176L11.2497 10.2641C11.2872 10.2868 11.3198 10.3167 11.3456 10.352C11.3715 10.3873 11.3902 10.4274 11.4006 10.4699C11.411 10.5124 11.4129 10.5566 11.4063 10.5999C11.3996 10.6431 11.3845 10.6847 11.3617 10.7221Z" fill="black"/>
</svg>
