<svg width="16" height="16" viewBox="0 0 16 16" fill="none" xmlns="http://www.w3.org/2000/svg">
<g clip-path="url(#clip0_722_25503)">
<path d="M14.9535 4.8915C15.3195 5.8465 15.4985 6.901 15.4985 7.9995C15.4985 10.03 14.8855 11.9095 13.617 13.2875C12.342 14.672 10.4515 15.499 7.9995 15.499C5.5475 15.499 3.6565 14.672 2.3815 13.2875C1.113 11.91 0.5 10.03 0.5 7.9995C0.5 5.969 1.113 4.089 2.3815 2.7115C3.6565 1.327 5.5475 0.5 8 0.5C9.3115 0.5 10.4625 0.7365 11.4445 1.1685C11.2984 1.2662 11.1805 1.4007 11.1029 1.55844C11.0253 1.71619 10.9907 1.8916 11.0025 2.067C10.164 1.705 9.1655 1.5 8 1.5C5.785 1.5 4.176 2.24 3.118 3.389C2.0525 4.5445 1.5 6.164 1.5 7.999C1.5 9.834 2.053 11.454 3.1175 12.61C4.1755 13.759 5.784 14.499 7.9995 14.499C10.215 14.499 11.8235 13.759 12.8815 12.61C13.946 11.4545 14.499 9.835 14.499 7.9995C14.499 6.9705 14.325 6.0095 13.9845 5.1595L14.7425 4.97C14.8172 4.95133 14.8875 4.92517 14.9535 4.8915Z" fill="black"/>
<path d="M3.14639 8.14627C3.24016 8.05253 3.36731 7.99987 3.49989 7.99987C3.63248 7.99987 3.75963 8.05253 3.85339 8.14627C3.92489 8.21727 4.32989 8.49977 4.99989 8.49977C5.66989 8.49977 6.07489 8.21727 6.14639 8.14627C6.24069 8.05519 6.367 8.00479 6.49809 8.00593C6.62919 8.00707 6.7546 8.05965 6.8473 8.15236C6.94001 8.24506 6.99259 8.37047 6.99373 8.50157C6.99487 8.63266 6.94447 8.75897 6.85339 8.85327C6.59089 9.11577 5.92989 9.49977 4.99989 9.49977C4.06989 9.49977 3.40889 9.11577 3.14639 8.85327C3.05266 8.7595 3 8.63235 3 8.49977C3 8.36718 3.05266 8.24003 3.14639 8.14627ZM9.14639 8.14627C9.24016 8.05253 9.36731 7.99987 9.49989 7.99987C9.63248 7.99987 9.75963 8.05253 9.85339 8.14627C9.92439 8.21727 10.3299 8.49977 10.9999 8.49977C11.6699 8.49977 12.0749 8.21727 12.1464 8.14627C12.2407 8.05519 12.367 8.00479 12.4981 8.00593C12.6292 8.00707 12.7546 8.05965 12.8473 8.15236C12.94 8.24506 12.9926 8.37047 12.9937 8.50157C12.9949 8.63266 12.9445 8.75897 12.8534 8.85327C12.5909 9.11577 11.9299 9.49977 10.9999 9.49977C10.0699 9.49977 9.40889 9.11577 9.14639 8.85327C9.05266 8.7595 9 8.63235 9 8.49977C9 8.36718 9.05266 8.24003 9.14639 8.14627ZM6.99989 11.9998C6.99989 11.7345 7.10525 11.4802 7.29279 11.2927C7.48032 11.1051 7.73468 10.9998 7.99989 10.9998C8.26511 10.9998 8.51946 11.1051 8.707 11.2927C8.89454 11.4802 8.99989 11.7345 8.99989 11.9998C8.99989 12.265 8.89454 12.5193 8.707 12.7069C8.51946 12.8944 8.26511 12.9998 7.99989 12.9998C7.73468 12.9998 7.48032 12.8944 7.29279 12.7069C7.10525 12.5193 6.99989 12.265 6.99989 11.9998ZM14.4469 1.72327C14.4896 1.63779 14.5068 1.54187 14.4967 1.44688C14.4865 1.35189 14.4494 1.26179 14.3896 1.18725C14.3299 1.11271 14.25 1.05685 14.1595 1.02629C14.069 0.995718 13.9716 0.99172 13.8789 1.01477L11.8789 1.51477C11.8142 1.52976 11.7532 1.55748 11.6994 1.59631C11.6455 1.63514 11.5999 1.6843 11.5653 1.74093C11.5307 1.79756 11.5076 1.86052 11.4976 1.92613C11.4875 1.99175 11.4907 2.05871 11.5068 2.12311C11.5229 2.18751 11.5516 2.24806 11.5914 2.30123C11.6311 2.3544 11.6811 2.39912 11.7383 2.43278C11.7955 2.46644 11.8588 2.48838 11.9246 2.4973C11.9904 2.50623 12.0573 2.50197 12.1214 2.48477L13.0664 2.24827L12.0529 4.27627C12.0102 4.36175 11.993 4.45766 12.0031 4.55265C12.0133 4.64765 12.0504 4.73774 12.1102 4.81228C12.1699 4.88682 12.2498 4.94268 12.3403 4.97325C12.4308 5.00381 12.5282 5.00781 12.6209 4.98477L14.6209 4.48477C14.6856 4.46977 14.7466 4.44205 14.8004 4.40322C14.8543 4.36439 14.8998 4.31523 14.9345 4.2586C14.9691 4.20197 14.9921 4.13901 15.0022 4.0734C15.0122 4.00778 15.0091 3.94082 14.993 3.87642C14.9769 3.81202 14.9482 3.75147 14.9084 3.6983C14.8687 3.64514 14.8187 3.60042 14.7615 3.56675C14.7043 3.53309 14.641 3.51115 14.5752 3.50223C14.5094 3.4933 14.4425 3.49757 14.3784 3.51477L13.4334 3.75127L14.4469 1.72327ZM9.74989 2.99977C9.68359 2.99977 9.62 3.02611 9.57312 3.07299C9.52623 3.11987 9.49989 3.18346 9.49989 3.24977C9.49989 3.31607 9.52623 3.37966 9.57312 3.42654C9.62 3.47343 9.68359 3.49977 9.74989 3.49977H10.7499L9.54989 5.09977C9.52204 5.13691 9.50507 5.18107 9.5009 5.22731C9.49673 5.27356 9.50552 5.32004 9.52629 5.36157C9.54705 5.4031 9.57897 5.43802 9.61846 5.46243C9.65795 5.48684 9.70346 5.49977 9.74989 5.49977H11.2499C11.3162 5.49977 11.3798 5.47343 11.4267 5.42654C11.4736 5.37966 11.4999 5.31607 11.4999 5.24977C11.4999 5.18346 11.4736 5.11987 11.4267 5.07299C11.3798 5.02611 11.3162 4.99977 11.2499 4.99977H10.2499L11.4499 3.39977C11.4777 3.36262 11.4947 3.31846 11.4989 3.27222C11.5031 3.22598 11.4943 3.17949 11.4735 3.13796C11.4527 3.09644 11.4208 3.06151 11.3813 3.0371C11.3418 3.0127 11.2963 2.99977 11.2499 2.99977H9.74989ZM7.01289 4.17077C7.03389 4.10794 7.07896 4.05601 7.1382 4.02639C7.19745 3.99676 7.26604 3.99186 7.32889 4.01277L8.82889 4.51277C8.87462 4.52806 8.91495 4.55625 8.94502 4.59394C8.97509 4.63163 8.99362 4.67722 8.99838 4.7252C9.00313 4.77318 8.99391 4.82151 8.97182 4.86437C8.94974 4.90723 8.91573 4.94279 8.87389 4.96677L7.60989 5.68977L8.57989 6.01327C8.61188 6.02296 8.64161 6.03898 8.6673 6.06036C8.69299 6.08174 8.71414 6.10806 8.72948 6.13776C8.74483 6.16746 8.75406 6.19993 8.75664 6.23326C8.75921 6.26659 8.75508 6.3001 8.74447 6.3318C8.73387 6.3635 8.71702 6.39276 8.69492 6.41783C8.67281 6.44291 8.6459 6.4633 8.61578 6.47779C8.58566 6.49229 8.55294 6.5006 8.51955 6.50222C8.48616 6.50385 8.45278 6.49876 8.42139 6.48727L6.92139 5.98727C6.87567 5.97197 6.83534 5.94378 6.80527 5.90609C6.7752 5.8684 6.75667 5.82282 6.75191 5.77484C6.74715 5.72685 6.75638 5.67852 6.77846 5.63566C6.80055 5.5928 6.83456 5.55724 6.87639 5.53327L8.13989 4.80977L7.16989 4.48627C7.10716 4.46517 7.05535 4.42006 7.02582 4.36082C6.9963 4.30159 6.99147 4.23306 7.01239 4.17027" fill="black"/>
</g>
<defs>
<clipPath id="clip0_722_25503">
<rect width="16" height="16" fill="white"/>
</clipPath>
</defs>
</svg>
