<svg width="13" height="11" viewBox="0 0 13 11" fill="none" xmlns="http://www.w3.org/2000/svg">
<path d="M1.6 1.2C1.75913 1.2 1.91174 1.13679 2.02426 1.02426C2.13679 0.911742 2.2 0.75913 2.2 0.6C2.2 0.44087 2.13679 0.288258 2.02426 0.175736C1.91174 0.063214 1.75913 0 1.6 0C1.44087 0 1.28826 0.063214 1.17574 0.175736C1.06321 0.288258 1 0.44087 1 0.6C1 0.75913 1.06321 0.911742 1.17574 1.02426C1.28826 1.13679 1.44087 1.2 1.6 1.2ZM6.2016 0.2C5.60123 0.200436 5.01952 0.408628 4.55521 0.789231C4.09091 1.16983 3.77263 1.69939 3.6544 2.288L3.608 2.5216C3.59567 2.57385 3.59398 2.62805 3.60303 2.68097C3.61209 2.73389 3.6317 2.78444 3.66071 2.82962C3.68972 2.87479 3.72752 2.91367 3.77187 2.94392C3.81622 2.97418 3.86621 2.9952 3.91885 3.00573C3.9715 3.01626 4.02572 3.01608 4.0783 3.00521C4.13087 2.99434 4.18072 2.97299 4.22487 2.94245C4.26903 2.9119 4.30658 2.87278 4.33529 2.82742C4.364 2.78206 4.38329 2.73138 4.392 2.6784L4.4392 2.4456C4.52787 2.00908 4.77539 1.62099 5.13382 1.35652C5.49224 1.09204 5.93606 0.969993 6.37932 1.01401C6.82258 1.05803 7.23373 1.26498 7.53314 1.59478C7.83255 1.92458 7.99891 2.35376 8 2.7992C8.0001 3.03565 7.95362 3.2698 7.86321 3.48828C7.7728 3.70675 7.64023 3.90528 7.47308 4.07251C7.30592 4.23974 7.10745 4.3724 6.88902 4.46291C6.67058 4.55342 6.43645 4.6 6.2 4.6H0.4C0.293913 4.6 0.192172 4.64214 0.117157 4.71716C0.0421428 4.79217 0 4.89391 0 5C0 5.10609 0.0421428 5.20783 0.117157 5.28284C0.192172 5.35786 0.293913 5.4 0.4 5.4H6.2C6.8784 5.38338 7.52344 5.10226 7.99745 4.61665C8.47146 4.13104 8.73689 3.47939 8.7371 2.80078C8.73731 2.12217 8.47228 1.47036 7.99857 0.984456C7.52486 0.49855 6.87999 0.217038 6.2016 0.2ZM10.8 3.8C10.2696 3.8 9.76086 4.01071 9.38579 4.38579C9.01071 4.76086 8.8 5.26957 8.8 5.8C8.8 5.90609 8.84214 6.00783 8.91716 6.08284C8.99217 6.15786 9.09391 6.2 9.2 6.2C9.30609 6.2 9.40783 6.15786 9.48284 6.08284C9.55786 6.00783 9.6 5.90609 9.6 5.8C9.6 5.56266 9.67038 5.33066 9.80224 5.13332C9.93409 4.93598 10.1215 4.78217 10.3408 4.69134C10.5601 4.60052 10.8013 4.57676 11.0341 4.62306C11.2669 4.66936 11.4807 4.78365 11.6485 4.95147C11.8164 5.11929 11.9306 5.33311 11.9769 5.56589C12.0232 5.79867 11.9995 6.03995 11.9087 6.25922C11.8178 6.47849 11.664 6.66591 11.4667 6.79776C11.2693 6.92962 11.0373 7 10.8 7H0.4C0.293913 7 0.192172 7.04214 0.117157 7.11716C0.0421428 7.19217 0 7.29391 0 7.4C0 7.50609 0.0421428 7.60783 0.117157 7.68284C0.192172 7.75786 0.293913 7.8 0.4 7.8H8.2C8.46522 7.80053 8.71936 7.9064 8.90652 8.09431C9.09368 8.28222 9.19853 8.53678 9.198 8.802C9.19747 9.06722 9.0916 9.32136 8.90369 9.50852C8.71578 9.69568 8.46122 9.80053 8.196 9.8C7.95709 9.80017 7.72584 9.71575 7.54324 9.5617C7.36063 9.40765 7.23847 9.19392 7.1984 8.9584L7.1944 8.9344C7.18721 8.88134 7.16944 8.83027 7.14215 8.7842C7.11485 8.73814 7.07859 8.69802 7.0355 8.66624C6.99242 8.63445 6.94339 8.61163 6.89132 8.59914C6.83925 8.58665 6.78521 8.58475 6.73239 8.59353C6.67958 8.60232 6.62906 8.62162 6.58384 8.65029C6.53862 8.67896 6.49961 8.71641 6.46914 8.76044C6.43866 8.80446 6.41733 8.85416 6.40642 8.90658C6.39551 8.95899 6.39523 9.01307 6.4056 9.0656L6.4096 9.0896C6.48073 9.51192 6.6992 9.89538 7.02624 10.1719C7.35329 10.4484 7.76773 10.6001 8.196 10.6C8.67382 10.6002 9.1322 10.4108 9.47044 10.0733C9.80869 9.73577 9.99915 9.27782 10 8.8C10 8.4296 9.888 8.0856 9.6968 7.8H10.8C11.3304 7.8 11.8391 7.58929 12.2142 7.21421C12.5893 6.83914 12.8 6.33043 12.8 5.8C12.8 5.26957 12.5893 4.76086 12.2142 4.38579C11.8391 4.01071 11.3304 3.8 10.8 3.8ZM4.6 10.2C4.6 10.3591 4.53679 10.5117 4.42426 10.6243C4.31174 10.7368 4.15913 10.8 4 10.8C3.84087 10.8 3.68826 10.7368 3.57574 10.6243C3.46321 10.5117 3.4 10.3591 3.4 10.2C3.4 10.0409 3.46321 9.88826 3.57574 9.77574C3.68826 9.66321 3.84087 9.6 4 9.6C4.15913 9.6 4.31174 9.66321 4.42426 9.77574C4.53679 9.88826 4.6 10.0409 4.6 10.2ZM11.2 2C11.3591 2 11.5117 1.93679 11.6243 1.82426C11.7368 1.71174 11.8 1.55913 11.8 1.4C11.8 1.24087 11.7368 1.08826 11.6243 0.975736C11.5117 0.863214 11.3591 0.8 11.2 0.8C11.0409 0.8 10.8883 0.863214 10.7757 0.975736C10.6632 1.08826 10.6 1.24087 10.6 1.4C10.6 1.55913 10.6632 1.71174 10.7757 1.82426C10.8883 1.93679 11.0409 2 11.2 2Z" fill="black"/>
</svg>
