<svg width="18" height="19" viewBox="0 0 18 19" fill="none" xmlns="http://www.w3.org/2000/svg">
<path fill-rule="evenodd" clip-rule="evenodd" d="M17.5153 7.47697L10.0153 0.400723C10.0116 0.397524 10.0082 0.394078 10.005 0.39041C9.43281 -0.129964 8.55876 -0.129964 7.98656 0.39041L7.97625 0.400723L0.484688 7.47697C0.17573 7.76107 -6.38962e-05 8.16162 0 8.58135V17.2485C0 18.077 0.671573 18.7485 1.5 18.7485H6C6.82843 18.7485 7.5 18.077 7.5 17.2485V12.7485H10.5V17.2485C10.5 18.077 11.1716 18.7485 12 18.7485H16.5C17.3284 18.7485 18 18.077 18 17.2485V8.58135C18.0001 8.16162 17.8243 7.76107 17.5153 7.47697ZM16.5 17.2485H12V12.7485C12 11.9201 11.3284 11.2485 10.5 11.2485H7.5C6.67157 11.2485 6 11.9201 6 12.7485V17.2485H1.5V8.58135L1.51031 8.57197L9 1.49854L16.4906 8.5701L16.5009 8.57947L16.5 17.2485Z" fill="#171212"/>
</svg>
